Coordinates
version=1
nRows=13
nColumns=63
inDegrees=yes

Units are S.I. units (second, meters, Newtons, ...)
If the header above contains a line with 'inDegrees', this indicates whether rotational values are in degrees (yes) or radians (no).

endheader
time	pelvis_tilt	pelvis_list	pelvis_rotation	pelvis_tx	pelvis_ty	pelvis_tz	hip_flexion_r	hip_adduction_r	hip_rotation_r	knee_angle_r	knee_angle_r_beta	ankle_angle_r	subtalar_angle_r	mtp_angle_r	hip_flexion_l	hip_adduction_l	hip_rotation_l	knee_angle_l	knee_angle_l_beta	ankle_angle_l	subtalar_angle_l	mtp_angle_l	L5_S1_Flex_Ext	L5_S1_Lat_Bending	L5_S1_axial_rotation	L4_L5_Flex_Ext	L4_L5_Lat_Bending	L4_L5_axial_rotation	L3_L4_Flex_Ext	L3_L4_Lat_Bending	L3_L4_axial_rotation	L2_L3_Flex_Ext	L2_L3_Lat_Bending	L2_L3_axial_rotation	L1_L2_Flex_Ext	L1_L2_Lat_Bending	L1_L2_axial_rotation	L1_T12_Flex_Ext	L1_T12_Lat_Bending	L1_T12_axial_rotation	Abs_r3	Abs_r2	Abs_r1	Abs_t1	Abs_t2	neck_flexion	neck_bending	neck_rotation	arm_flex_r	arm_add_r	arm_rot_r	elbow_flex_r	pro_sup_r	wrist_flex_r	wrist_dev_r	arm_flex_l	arm_add_l	arm_rot_l	elbow_flex_l	pro_sup_l	wrist_flex_l	wrist_dev_l
3.516667	2.417491	-0.794702	81.593723	0.332669	1.064189	0.352511	-5.399543	-4.222526	0.073656	7.003581	0.122236	30.871450	10.272997	0.000000	-8.435898	3.420646	1.879354	1.216455	0.021231	23.562824	-16.004539	0.000000	-0.033275	-0.195132	1.214408	-0.061795	-0.259526	1.290308	-0.054667	-0.474444	1.290308	-0.038030	-0.474444	1.062607	-0.030899	-0.397913	0.986706	-0.019013	-0.302260	0.910806	-0.237679	-2.207373	6.754171	0.000000	0.000000	23.808537	6.515200	1.709775	116.337491	-29.318398	25.098804	80.367142	88.613167	-36.108891	-9.592074	109.873959	-39.665540	16.502851	90.378683	88.958051	-21.960559	6.558149
3.533333	2.474977	-0.738704	81.579055	0.332562	1.064525	0.352684	-5.489657	-4.184641	-0.109648	6.955799	0.121402	30.726878	10.591605	0.000000	-8.480646	3.378153	1.794796	1.235152	0.021557	23.534518	-15.947410	0.000000	-0.032534	-0.185798	1.196107	-0.060419	-0.247111	1.270864	-0.053450	-0.451749	1.270864	-0.037183	-0.451749	1.046594	-0.030211	-0.378879	0.971837	-0.018590	-0.287801	0.897081	-0.232388	-2.101783	6.652391	0.000000	0.000000	23.627157	6.738960	2.127391	115.618298	-28.394708	24.533631	80.634451	88.540534	-37.591035	-11.131488	109.268526	-38.931375	15.825791	90.689131	88.900941	-20.940634	6.097790
3.550000	2.541328	-0.682288	81.636892	0.332421	1.064886	0.352822	-5.611918	-4.123963	-0.324172	6.874307	0.119979	30.557727	10.837662	0.000000	-8.524876	3.312940	1.771376	1.256092	0.021923	23.511342	-15.887827	0.000000	-0.032778	-0.176788	1.164243	-0.060872	-0.235128	1.237008	-0.053851	-0.429841	1.237008	-0.037462	-0.429841	1.018713	-0.030438	-0.360505	0.945948	-0.018729	-0.273844	0.873182	-0.234129	-1.999857	6.475171	0.000000	0.000000	23.470646	6.984749	2.489930	114.883621	-27.656938	24.158469	80.892477	88.462975	-38.722556	-12.340549	108.728085	-38.311451	15.345948	90.896750	88.849872	-19.957706	5.710852
3.566667	2.624161	-0.637484	81.751801	0.332257	1.065240	0.352927	-5.753861	-4.033901	-0.566039	6.757030	0.117932	30.358548	11.022002	0.000000	-8.557035	3.217561	1.792667	1.278733	0.022318	23.502280	-15.814380	0.000000	-0.032289	-0.166530	1.124857	-0.059963	-0.221485	1.195160	-0.053047	-0.404901	1.195160	-0.036903	-0.404901	0.984250	-0.029983	-0.339588	0.913946	-0.018450	-0.257955	0.843643	-0.230635	-1.883821	6.256116	0.000000	0.000000	23.342487	7.227999	2.821930	114.179982	-27.133414	23.953495	81.176586	88.405881	-39.319801	-13.045499	108.233767	-37.836127	15.065160	91.059473	88.798683	-19.128609	5.284299
3.583333	2.709334	-0.594422	81.926766	0.332095	1.065584	0.353004	-5.920205	-3.927113	-0.824601	6.614143	0.115439	30.152839	11.115370	0.000000	-8.585541	3.106506	1.864448	1.302310	0.022730	23.497607	-15.739714	0.000000	-0.033204	-0.158586	1.080675	-0.061663	-0.210919	1.148217	-0.054551	-0.385585	1.148217	-0.037949	-0.385585	0.945591	-0.030833	-0.323388	0.878048	-0.018973	-0.245649	0.810506	-0.237172	-1.793952	6.010390	0.000000	0.000000	23.264984	7.461290	3.020429	113.484424	-26.868964	23.834279	81.560606	88.372471	-39.362036	-13.172297	107.810955	-37.512410	14.983816	91.261246	88.763552	-18.411467	4.951776
3.600000	2.803432	-0.570315	82.155029	0.331909	1.065877	0.353064	-6.090964	-3.798163	-1.084435	6.442494	0.112443	29.941691	11.119315	0.000000	-8.593212	2.974143	1.994896	1.324793	0.023122	23.504009	-15.672696	0.000000	-0.032809	-0.151259	1.037532	-0.060930	-0.201174	1.102378	-0.053903	-0.367770	1.102378	-0.037498	-0.367770	0.907840	-0.030467	-0.308446	0.842995	-0.018747	-0.234300	0.778149	-0.234355	-1.711067	5.770441	0.000000	0.000000	23.221245	7.656791	3.076390	112.788994	-26.867842	23.751795	82.089394	88.361334	-38.963775	-12.780094	107.419014	-37.333792	15.046308	91.562068	88.723999	-17.818196	4.727161
3.616667	2.899719	-0.555496	82.410989	0.331741	1.066119	0.353150	-6.258393	-3.656285	-1.316944	6.261802	0.109289	29.743326	11.024445	0.000000	-8.587798	2.831514	2.154725	1.347169	0.023513	23.519609	-15.610065	0.000000	-0.033998	-0.145994	1.004751	-0.063137	-0.194172	1.067548	-0.055855	-0.354969	1.067548	-0.038856	-0.354969	0.879158	-0.031570	-0.297711	0.816361	-0.019426	-0.226144	0.753564	-0.242842	-1.651511	5.588126	0.000000	0.000000	23.244372	7.799154	2.935452	112.077388	-27.146530	23.635272	82.818949	88.374469	-38.168939	-11.941149	107.046885	-37.270829	15.222606	91.998699	88.693899	-17.426933	4.596553
3.633333	2.994879	-0.558359	82.691744	0.331595	1.066295	0.353271	-6.411766	-3.504181	-1.507594	6.068587	0.105917	29.562170	10.838095	0.000000	-8.559676	2.680716	2.355184	1.369951	0.023910	23.542439	-15.559258	0.000000	-0.034538	-0.143097	0.984108	-0.064141	-0.190319	1.045614	-0.056743	-0.347927	1.045614	-0.039474	-0.347927	0.861094	-0.032072	-0.291804	0.799587	-0.019735	-0.221658	0.738081	-0.246703	-1.618745	5.473311	0.000000	0.000000	23.298743	7.890285	2.579145	111.286108	-27.659649	23.381026	83.767568	88.411761	-37.142107	-10.850522	106.659050	-37.288190	15.480697	92.583789	88.661546	-17.264049	4.500524
3.650000	3.085391	-0.580213	82.981898	0.331476	1.066387	0.353468	-6.538681	-3.349359	-1.651969	5.872024	0.102486	29.406301	10.593699	0.000000	-8.505200	2.528993	2.575375	1.394475	0.024338	23.571064	-15.523156	0.000000	-0.035789	-0.141835	0.975833	-0.066463	-0.188640	1.036823	-0.058797	-0.344857	1.036823	-0.040903	-0.344857	0.853854	-0.033233	-0.289230	0.792864	-0.020450	-0.219702	0.731875	-0.255636	-1.604464	5.427291	0.000000	0.000000	23.422264	7.939520	2.085765	110.464239	-28.348109	23.091491	84.859376	88.465086	-36.295810	-9.884800	106.261332	-37.413615	15.801209	93.339484	88.598566	-17.293995	4.495522
3.666667	3.157793	-0.619967	83.265702	0.331451	1.066409	0.353760	-6.631312	-3.204180	-1.744310	5.678564	0.099110	29.272746	10.311835	0.000000	-8.424336	2.388828	2.804390	1.418709	0.024761	23.594724	-15.504547	0.000000	-0.037287	-0.144301	0.978831	-0.069246	-0.191920	1.040008	-0.061260	-0.350853	1.040008	-0.042616	-0.350853	0.856477	-0.034625	-0.294258	0.795300	-0.021306	-0.223522	0.734123	-0.266340	-1.632361	5.443964	0.000000	0.000000	23.597262	7.983887	1.465206	109.562197	-29.138716	22.652805	86.093255	88.533851	-35.536860	-9.085963	105.846547	-37.643982	16.181985	94.241144	88.504132	-17.513361	4.504657
3.683333	3.211039	-0.688624	83.530189	0.331498	1.066363	0.354148	-6.669758	-3.074155	-1.797358	5.499714	0.095988	29.157442	10.032802	0.000000	-8.305912	2.264910	3.025273	1.441846	0.025165	23.605146	-15.503901	0.000000	-0.036763	-0.149608	0.989088	-0.068273	-0.198978	1.050906	-0.060398	-0.363756	1.050906	-0.042017	-0.363756	0.865452	-0.034138	-0.305080	0.803634	-0.021006	-0.231742	0.741816	-0.262595	-1.692391	5.501013	0.000000	0.000000	23.798619	8.031726	0.796689	108.574224	-29.945662	22.068480	87.445422	88.614833	-34.967915	-8.424669	105.364269	-37.958833	16.548331	95.307208	88.356559	-17.931731	4.582033
3.700000	3.243104	-0.757426	83.759553	0.331620	1.066279	0.354637	-6.678043	-2.969365	-1.815556	5.346421	0.093313	29.070022	9.795115	0.000000	-8.179965	2.165509	3.236965	1.465596	0.025579	23.604470	-15.529901	0.000000	-0.039379	-0.158439	1.004742	-0.073131	-0.210724	1.067538	-0.064696	-0.385229	1.067538	-0.045006	-0.385229	0.879149	-0.036567	-0.323089	0.816353	-0.022501	-0.245422	0.753556	-0.281281	-1.792297	5.588071	0.000000	0.000000	24.047732	8.128404	0.106577	107.546826	-30.790694	21.444008	88.856860	88.696142	-34.712583	-8.043955	104.875613	-38.405974	16.954429	96.525969	88.118889	-18.471167	4.776372
3.716667	3.268495	-0.845387	83.930360	0.331784	1.066162	0.355204	-6.631525	-2.879010	-1.795150	5.228758	0.091259	28.998211	9.617908	0.000000	-8.029593	2.080655	3.387930	1.490497	0.026014	23.604418	-15.548478	0.000000	-0.040630	-0.167065	1.026575	-0.075453	-0.222197	1.090736	-0.066750	-0.406202	1.090736	-0.046436	-0.406202	0.898253	-0.037729	-0.340679	0.834092	-0.023216	-0.258784	0.769932	-0.290213	-1.889875	5.709504	0.000000	0.000000	24.269271	8.218346	-0.530224	106.448344	-31.616054	20.719564	90.361611	88.784153	-34.504657	-7.681282	104.292113	-38.922979	17.248582	97.919713	87.861993	-18.971825	5.274494
